<!--?xml version="1.0" standalone="no"?-->
              <svg id="sw-js-blob-svg" viewBox="0 0 100 100" xmlns="http://www.w3.org/2000/svg" version="1.1">
                    <defs> 
                        <linearGradient id="sw-gradient" x1="0" x2="1" y1="1" y2="0">
                            <stop id="stop1" stop-color="rgba(109, 92, 163, 1)" offset="0%"></stop>
                            <stop id="stop2" stop-color="rgba(188, 167, 235, 1)" offset="100%"></stop>
                        </linearGradient>
                    </defs>
                <path fill="url(#sw-gradient)" d="M17.6,-24.1C22.3,-20.9,25.1,-15,28.9,-8.2C32.7,-1.5,37.5,6.2,35.9,11.8C34.3,17.5,26.2,21.2,19.1,24.9C12.1,28.6,6,32.2,-0.1,32.4C-6.3,32.6,-12.5,29.2,-18,25C-23.5,20.8,-28.2,15.8,-29.8,9.9C-31.4,4,-29.9,-2.6,-27.9,-9.2C-26,-15.8,-23.6,-22.5,-18.8,-25.7C-14.1,-28.9,-7,-28.6,-0.3,-28.3C6.5,-27.9,13,-27.4,17.6,-24.1Z" width="100%" height="100%" transform="translate(50 50)" stroke-width="0" style="transition: 0.3s;" stroke="url(#sw-gradient)"></path>
              </svg>