<svg id="visual" viewBox="0 0 900 600" width="900" height="600" xmlns="http://www.w3.org/2000/svg" xmlns:xlink="http://www.w3.org/1999/xlink" version="1.1"><rect width="900" height="600" fill="#CDFCCC"></rect><g><g transform="translate(167 342)"><path d="M0 -57.1L49.4 -28.5L49.4 28.5L0 57.1L-49.4 28.5L-49.4 -28.5Z" fill="#d1c0f6"></path></g><g transform="translate(842 152)"><path d="M0 -47L40.7 -23.5L40.7 23.5L0 47L-40.7 23.5L-40.7 -23.5Z" fill="#d1c0f6"></path></g><g transform="translate(349 462)"><path d="M0 -46L39.8 -23L39.8 23L0 46L-39.8 23L-39.8 -23Z" fill="#d1c0f6"></path></g><g transform="translate(479 105)"><path d="M0 -48L41.6 -24L41.6 24L0 48L-41.6 24L-41.6 -24Z" fill="#d1c0f6"></path></g><g transform="translate(571 517)"><path d="M0 -37L32 -18.5L32 18.5L0 37L-32 18.5L-32 -18.5Z" fill="#d1c0f6"></path></g><g transform="translate(135 145)"><path d="M0 -48L41.6 -24L41.6 24L0 48L-41.6 24L-41.6 -24Z" fill="#d1c0f6"></path></g><g transform="translate(66 246)"><path d="M0 -55L47.6 -27.5L47.6 27.5L0 55L-47.6 27.5L-47.6 -27.5Z" fill="#d1c0f6"></path></g><g transform="translate(524 271)"><path d="M0 -50L43.3 -25L43.3 25L0 50L-43.3 25L-43.3 -25Z" fill="#d1c0f6"></path></g><g transform="translate(634 59)"><path d="M0 -45L39 -22.5L39 22.5L0 45L-39 22.5L-39 -22.5Z" fill="#d1c0f6"></path></g><g transform="translate(837 516)"><path d="M0 -43L37.2 -21.5L37.2 21.5L0 43L-37.2 21.5L-37.2 -21.5Z" fill="#d1c0f6"></path></g><g transform="translate(269 166)"><path d="M0 -53L45.9 -26.5L45.9 26.5L0 53L-45.9 26.5L-45.9 -26.5Z" fill="#d1c0f6"></path></g><g transform="translate(489 408)"><path d="M0 -48L41.6 -24L41.6 24L0 48L-41.6 24L-41.6 -24Z" fill="#d1c0f6"></path></g><g transform="translate(176 497)"><path d="M0 -36L31.2 -18L31.2 18L0 36L-31.2 18L-31.2 -18Z" fill="#d1c0f6"></path></g><g transform="translate(382 224)"><path d="M0 -37L32 -18.5L32 18.5L0 37L-32 18.5L-32 -18.5Z" fill="#d1c0f6"></path></g><g transform="translate(288 318)"><path d="M0 -47L40.7 -23.5L40.7 23.5L0 47L-40.7 23.5L-40.7 -23.5Z" fill="#d1c0f6"></path></g><g transform="translate(715 404)"><path d="M0 -49L42.4 -24.5L42.4 24.5L0 49L-42.4 24.5L-42.4 -24.5Z" fill="#d1c0f6"></path></g><g transform="translate(634 312)"><path d="M0 -44L38.1 -22L38.1 22L0 44L-38.1 22L-38.1 -22Z" fill="#d1c0f6"></path></g><g transform="translate(791 289)"><path d="M0 -40L34.6 -20L34.6 20L0 40L-34.6 20L-34.6 -20Z" fill="#d1c0f6"></path></g><g transform="translate(653 177)"><path d="M0 -49L42.4 -24.5L42.4 24.5L0 49L-42.4 24.5L-42.4 -24.5Z" fill="#d1c0f6"></path></g><g transform="translate(59 460)"><path d="M0 -46L39.8 -23L39.8 23L0 46L-39.8 23L-39.8 -23Z" fill="#d1c0f6"></path></g><g transform="translate(696 517)"><path d="M0 -47L40.7 -23.5L40.7 23.5L0 47L-40.7 23.5L-40.7 -23.5Z" fill="#d1c0f6"></path></g><g transform="translate(841 399)"><path d="M0 -44L38.1 -22L38.1 22L0 44L-38.1 22L-38.1 -22Z" fill="#d1c0f6"></path></g><g transform="translate(445 542)"><path d="M0 -56L48.5 -28L48.5 28L0 56L-48.5 28L-48.5 -28Z" fill="#d1c0f6"></path></g><g transform="translate(363 94)"><path d="M0 -35L30.3 -17.5L30.3 17.5L0 35L-30.3 17.5L-30.3 -17.5Z" fill="#d1c0f6"></path></g><g transform="translate(746 83)"><path d="M0 -45L39 -22.5L39 22.5L0 45L-39 22.5L-39 -22.5Z" fill="#d1c0f6"></path></g></g></svg>